<?xml version="1.0" standalone="no"?>
<!DOCTYPE svg PUBLIC "-//W3C//DTD SVG 20010904//EN"
 "http://www.w3.org/TR/2001/REC-SVG-20010904/DTD/svg10.dtd">
<svg version="1.0" xmlns="http://www.w3.org/2000/svg"
 width="123.000000pt" height="124.000000pt" viewBox="0 0 123.000000 124.000000"
 preserveAspectRatio="xMidYMid meet">

<g transform="translate(0.000000,124.000000) scale(0.100000,-0.100000)"
fill="#000000" stroke="none">
<path d="M366 1118 c-9 -12 -16 -30 -16 -40 0 -15 -9 -18 -60 -18 -72 0 -96
-18 -105 -82 -3 -24 -5 -205 -3 -403 4 -507 -24 -475 428 -475 340 0 355 3
401 77 24 38 24 40 27 408 2 204 0 385 -3 403 -10 54 -36 72 -105 72 -52 0
-60 2 -60 19 0 10 -9 29 -19 42 -16 20 -23 22 -47 14 -19 -7 -31 -20 -38 -43
-8 -30 -11 -32 -57 -32 -45 0 -49 2 -49 24 0 29 -24 56 -50 56 -26 0 -50 -27
-50 -56 0 -22 -4 -24 -49 -24 -47 0 -50 2 -56 30 -11 50 -63 66 -89 28z m-13
-186 c4 -17 16 -33 32 -40 23 -11 29 -9 50 13 14 13 25 31 25 40 0 11 12 15
50 15 46 0 50 -2 50 -23 0 -30 18 -47 50 -47 32 0 50 17 50 47 0 21 5 23 48
23 43 0 49 -3 59 -29 22 -58 88 -59 99 -1 5 25 11 30 35 30 l29 0 0 -364 0
-365 -22 -15 c-33 -24 -563 -24 -596 0 l-22 15 0 365 0 364 29 0 c23 0 30 -5
34 -28z"/>
<path d="M426 654 c-19 -18 -21 -55 -4 -72 17 -17 359 -17 376 0 17 17 15 54
-4 72 -23 24 -345 24 -368 0z"/>
<path d="M422 468 c-17 -17 -15 -54 4 -72 23 -24 345 -24 368 0 19 18 21 55 4
72 -17 17 -359 17 -376 0z"/>
</g>
</svg>
